# xmcd
# Track frame offsets:
# 150
# 17826
# 30857
# 45293
# 68425
# 84366
# 98315
# 111338
# 122830
# 136044
# 147820
# 160413
# 179169
# 194747
# 206469
# 227837
#
# Disc length: 3276 seconds
# Revision: 0
# Processed by: cddbd v1.5.2PL0 Copyright (c) Steve Scherf et al.
# Submitted via: VisiTrax 2.11.2.271 - For more info visit www.synapsa.com
#
DISCID=cc0cca10
DTITLE=Sarah Vaughan - Compact Jazz
DYEAR=1900
DGENRE=
TTITLE0=Lullaby Of Birdland
TTITLE1=My Funny valentine
TTITLE2=Lover Man
TTITLE3=Cheek To Cheek
TTITLE4=It Never Entered My Mind
TTITLE5=Tenderly
TTITLE6=Sometimes I'm Happy
TTITLE7=How High The Moon
TTITLE8=Misty
TTITLE9=Take The "A" Train
TTITLE10=Summertime
TTITLE11=The Sweetest Sounds
TTITLE12=Poor Butterfly
TTITLE13=Shulie Bop
TTITLE14=Embraceable You
TTITLE15=Lush Life
EXTD=
EXTT0=
EXTT1=
EXTT2=
EXTT3=
EXTT4=
EXTT5=
EXTT6=
EXTT7=
EXTT8=
EXTT9=
EXTT10=
EXTT11=
EXTT12=
EXTT13=
EXTT14=
EXTT15=
PLAYORDER=
